<?xml version="1.0" encoding="iso-8859-1"?>
<!-- Generator: Adobe Illustrator 21.0.2, SVG Export Plug-In . SVG Version: 6.00 Build 0)  -->
<svg xmlns="http://www.w3.org/2000/svg" xmlns:xlink="http://www.w3.org/1999/xlink" version="1.1" id="Layer_1" x="0px" y="0px" viewBox="0 0 40 40" style="enable-background:new 0 0 40 40;" xml:space="preserve">
<g>
	<path style="fill:#98CCFD;" d="M4.035,36.5c-0.908,0-1.725-0.473-2.184-1.264c-0.466-0.804-0.469-1.766-0.007-2.572L17.81,4.777   C18.267,3.978,19.086,3.5,20,3.5s1.733,0.478,2.19,1.277l15.965,27.887c0.462,0.806,0.459,1.768-0.007,2.572   c-0.459,0.792-1.275,1.264-2.184,1.264H4.035z"/>
	<g>
		<path style="fill:#4788C7;" d="M20,4c0.733,0,1.389,0.383,1.757,1.025l15.965,27.887c0.372,0.65,0.37,1.425-0.006,2.073    C37.347,35.621,36.693,36,35.965,36H4.035c-0.728,0-1.382-0.379-1.751-1.015c-0.376-0.648-0.378-1.423-0.006-2.073L18.243,5.025    C18.611,4.383,19.267,4,20,4 M20,3c-1.021,0-2.041,0.509-2.625,1.528L1.411,32.415C0.244,34.453,1.702,37,4.035,37h31.93    c2.333,0,3.791-2.547,2.625-4.585L22.625,4.528C22.041,3.509,21.021,3,20,3L20,3z"/>
	</g>
</g>
<g>
	<path style="fill:#FFFFFF;" d="M20,8l14,25H6L20,8z"/>
</g>
<line style="fill:none;stroke:#4788C7;stroke-width:0.5;stroke-miterlimit:10;" x1="15" y1="22" x2="26" y2="29"/>
<g>
	<path style="fill:#4788C7;" d="M20.45,23.673l0.638,2.641C21.179,26.738,21.568,27.03,22,27h0c0.525-0.037,0.898-0.528,0.792-1.043   l-0.879-3.969c-0.053-0.26-0.2-0.49-0.415-0.647c-0.519-0.378-1.502-1.093-1.897-1.38c-0.113-0.082-0.239-0.14-0.375-0.172   l-2.16-0.743c-0.428-0.103-0.876,0.067-1.127,0.429l-1.799,2.17c-0.261,0.377-0.176,0.894,0.193,1.168h0   c0.383,0.284,0.925,0.197,1.201-0.192l1.197-1.359l0.922,0.307L16,24l-2,8h2l1.474-5l1.158,1.285L19.217,32L21,32l-0.55-4.369   l-1.26-2.246L20.45,23.673z"/>
</g>
<g>
	<circle style="fill:#4788C7;" cx="22" cy="19" r="2"/>
</g>
<g>
	<path style="fill:#4788C7;" d="M22,32h8c-0.789-1.985-2.431-5-3.29-5c-0.826,0-1.62,3.284-2.269,3.284   c-0.305,0-0.714-0.316-1.125-0.316C22.885,29.968,22,31.324,22,32z"/>
</g>
</svg>
